<?xml version="1.0" encoding="utf-8"?>
<!-- Generator: Adobe Illustrator 23.0.5, SVG Export Plug-In . SVG Version: 6.00 Build 0)  -->
<svg version="1.1" id="Layer_1" xmlns="http://www.w3.org/2000/svg" xmlns:xlink="http://www.w3.org/1999/xlink" x="0px" y="0px"
	viewBox="0 0 476 615.63" style="enable-background:new 0 0 476 615.63;" xml:space="preserve">

<style type="text/css">
	.st0{clip-path:url(#SVGID_2_);fill-rule:evenodd;clip-rule:evenodd;fill:#FFFFFF;}
	.st1{clip-path:url(#SVGID_2_);fill-rule:evenodd;clip-rule:evenodd;fill:#DBA111;}
	.st2{clip-path:url(#SVGID_2_);}
	.st3{clip-path:url(#SVGID_4_);fill:url(#SVGID_5_);}
	.st4{clip-path:url(#SVGID_2_);fill-rule:evenodd;clip-rule:evenodd;}
	.st5{clip-path:url(#SVGID_2_);fill-rule:evenodd;clip-rule:evenodd;fill:#ED1C24;}
</style>
<g>
	<defs>
		<rect id="SVGID_1_" x="-66" y="-51" width="612" height="720"/>
	</defs>
	<clipPath id="SVGID_2_">
		<use xlink:href="#SVGID_1_"  style="overflow:visible;"/>
	</clipPath>
	<polyline class="st0" points="-67.13,-51.1 544.5,-51.1 544.5,667.37 -67.13,667.37 	"/>
	<path class="st1" d="M16.75,376.11c28.64,10.16,45.35,30.63,50.12,61.41C38.23,427.37,21.52,406.9,16.75,376.11"/>
	<path class="st1" d="M9.68,318.3c27.47,13.14,42.04,35.27,43.71,66.4C25.92,371.56,11.35,349.43,9.68,318.3"/>
	<path class="st1" d="M24.69,267.97c19.27,17.64,25.88,39.37,19.82,65.17C25.23,315.5,18.63,293.77,24.69,267.97"/>
	<path class="st1" d="M78.05,248.41c4.14,26.2-4.06,47.34-24.57,63.43C49.34,285.64,57.53,264.49,78.05,248.41"/>
	<path class="st1" d="M43.12,219.75c13.1,19.13,14.52,39.14,4.28,60.04C34.31,260.65,32.88,240.64,43.12,219.75"/>
	<path class="st1" d="M74.24,207.32c3.32,18.11-2,32.94-15.98,44.48C54.95,233.69,60.27,218.87,74.24,207.32"/>
	<path class="st1" d="M72.75,302.12c12.29,28.49,9.1,55.02-9.55,79.59C50.92,353.22,54.1,326.69,72.75,302.12"/>
	<path class="st1" d="M460.57,376.11c-28.83,10.16-45.64,30.63-50.45,61.41C438.95,427.37,455.77,406.9,460.57,376.11"/>
	<path class="st1" d="M467.68,318.3c-27.65,13.14-42.31,35.27-43.99,66.4C451.34,371.56,466.01,349.43,467.68,318.3"/>
	<path class="st1" d="M452.58,267.97c-19.4,17.64-26.05,39.37-19.95,65.17C452.03,315.5,458.68,293.77,452.58,267.97"/>
	<path class="st1" d="M398.87,248.41c-4.16,26.2,4.08,47.34,24.73,63.43C427.77,285.64,419.52,264.49,398.87,248.41"/>
	<path class="st1" d="M434.03,219.75c-13.18,19.13-14.62,39.14-4.31,60.04C442.9,260.65,444.33,240.64,434.03,219.75"/>
	<path class="st1" d="M402.7,207.32c-3.34,18.11,2.02,32.94,16.08,44.48C422.12,233.69,416.77,218.87,402.7,207.32"/>
	<path class="st1" d="M404.21,302.12c-12.37,28.49-9.16,55.02,9.61,79.59C426.18,353.22,422.98,326.69,404.21,302.12"/>
	<path class="st0" d="M92.61,200.3h292.24v234.54c-0.29,39.69-29.07,68.43-74.46,92.48l-71.59,33.52L167,527.29
		c-44.5-23.64-74.36-52.75-74.16-92.03"/>
	<g class="st2">
		<defs>
			<path id="SVGID_3_" d="M98.63,206.78h280.11v225.99c-0.28,38.24-27.86,65.94-71.37,89.11l-68.62,32.29l-68.83-32.32
				c-42.65-22.77-71.28-50.83-71.08-88.67"/>
		</defs>
		<clipPath id="SVGID_4_">
			<use xlink:href="#SVGID_3_"  style="overflow:visible;"/>
		</clipPath>
		
			<linearGradient id="SVGID_5_" gradientUnits="userSpaceOnUse" x1="-65.94" y1="668.5" x2="-65.06" y2="668.5" gradientTransform="matrix(0 371.8233 -280.1123 0 187493.7656 24722.6875)">
			<stop  offset="0" style="stop-color:#ED1C24"/>
			<stop  offset="0.3" style="stop-color:#ED1C24"/>
			<stop  offset="1" style="stop-color:#000000"/>
		</linearGradient>
		<rect x="98.63" y="206.78" class="st3" width="280.11" height="347.39"/>
	</g>
	<path class="st0" d="M117.59,226.1h242.19v201.76c-0.24,33.27-24.09,57.36-61.7,77.52l-59.33,28.09l-59.51-28.12
		c-36.88-19.81-61.63-44.21-61.46-77.14"/>
	<path class="st4" d="M184.24,358.5c-4.6,0-8.35,11.82-8.35,26.32c0,14.5,3.75,26.32,8.35,26.32c3.45,0,6.42-6.65,7.69-16.09
		c0.42-3.15,0.66-6.6,0.66-10.23C192.59,370.33,188.84,358.5,184.24,358.5"/>
	<path class="st4" d="M183.75,361.1c-3.16,0-4.2,15.41-7.38,24.97c-1.45,4.34-6.93,1.4-6.93,5.93c0,2.94-8.02-1.39-7.73,1.26
		c1.12,10.39,4.25,17.9,7.91,17.9c4.6,0,8.35-11.82,8.35-26.32C177.97,370.33,188.35,361.1,183.75,361.1"/>
	<path class="st4" d="M177.29,395.59c-5.14,0-9.72,13.56-9.72,14.51c0,0.95,4.19,1.73,9.33,1.73c5.14,0,9.33-0.78,9.33-1.73
		C186.23,409.15,182.43,395.59,177.29,395.59"/>
	<path class="st4" d="M271.46,372.15c-2.6,0-4.71,8.07-4.71,17.96c0,9.89,2.12,17.96,4.71,17.96s4.71-8.07,4.71-17.96
		C276.17,380.22,274.05,372.15,271.46,372.15"/>
	<path class="st4" d="M271.18,373.92c-1.78,0-2.37,10.51-4.17,17.03c-0.82,2.96-3.91,0.95-3.91,4.04c0,2.01-4.52-0.95-4.36,0.86
		c0.63,7.09,2.4,12.21,4.46,12.21c2.6,0,4.71-8.07,4.71-17.96C267.92,380.22,273.78,373.92,271.18,373.92"/>
	<path class="st4" d="M267.54,397.45c-2.9,0-5.48,9.25-5.48,9.9c0,0.65,2.36,1.18,5.26,1.18c2.9,0,5.26-0.53,5.26-1.18
		C272.58,406.7,270.44,397.45,267.54,397.45"/>
	<path class="st4" d="M258.51,365.37c-3.11,0-5.64,9.66-5.64,21.51c0,11.85,2.54,21.51,5.64,21.51c3.11,0,5.64-9.66,5.64-21.51
		C264.15,375.03,261.61,365.37,258.51,365.37"/>
	<path class="st4" d="M258.18,367.49c-2.14,0-2.84,12.59-4.99,20.4c-0.98,3.55-4.69,1.14-4.69,4.84c0,2.41-5.42-1.13-5.23,1.03
		c0.76,8.49,2.87,14.62,5.35,14.62c3.11,0,5.64-9.66,5.64-21.51C254.26,375.03,261.28,367.49,258.18,367.49"/>
	<path class="st4" d="M253.81,395.67c-3.47,0-6.57,11.08-6.57,11.86c0,0.78,2.83,1.41,6.31,1.41c3.47,0,6.31-0.64,6.31-1.41
		C259.85,406.75,257.28,395.67,253.81,395.67"/>
	<path class="st0" d="M264.12,393.6H143.79v-22.99c-0.09-1.94,0.53-3.87,1.85-5.81l-0.41-39.7l12.4-48.94l90.01-22.72
		c7.03,0.12,12.87,1.06,17.27,2.99l19.88-1.1l55.33,75.16l-0.17,55.7"/>
	<path class="st4" d="M284.96,255.19l-21.31,0.68c5.91,3.28,9.76,6.3,10.36,12.42l0.86,13.09c0.24,3.26,5.04,0.28,5.08,4.41
		l0.1,18.76c0.01,2.72-0.51,3.77-2.75,4.08c-2.74,0.28-5.48,0.32-8.22,0.11c-1.95-0.2-2.91-1.45-2.88-3.93l-0.02-18.57
		c-0.1-3.83-4.49-3.59-6.04-3.63c-1.88-0.06-6-0.49-6.43,3.28c-0.79,7.92-0.54,15.18,0.95,21.62c0.98,2.77,3.32,3.11,8.03,2.81
		c3.16-0.51,1.65,3.68-3.03,5.46c-2.47,0.88-2.24,5.21,3.65,4.48c1.91-0.25,4.61-1.24,6.59-2.6c4-2.73,6.26-4.84,6.37-2.14
		l0.04,39.76c-3.59-2.81-7.84-3.86-10.31-0.1c-1.38,2.11-1.87,5.95-2.8,11.52l-0.48,3.58c-2.19,13.85-4.75,19.76-15.95,20.03
		l-62,0.74c-9.92,0.21-14.03-5.27-16.36-13.01l6.62,0.08c0.99,2.81,2.26,4.88,3.87,6.18c2.54,2.06,6.3,1.98,9.2,2.11
		c5.23,0.24,12.57,0.14,17.17-0.12c3.08-0.17,5.58-0.66,6.98-1.75c3.87-3.28,6.62-8.51,8.2-14.92c-25.2,0.67-50.66,0.84-76.38,0.53
		c-1.81,1.66-1.29,12.51-0.61,18.6c0.33,2.97,0.75,6.1,2.94,7.78c3.07,2.35,10.18,2.85,16.96,2.13c0.17,2.98,0.59,5.58,3.2,6.71
		l18.55-0.08c2.73-1.77,4.14-3.95,4.23-6.55l59.13-0.57l15.34-6.45l5.36-25.64l-3.32,11.54l8.86,20.88l52.75,1.61l3.96-5.44l9.03,0
		l-0.03-8.85l-55.44-25.54"/>
	<path class="st5" d="M336.96,326.66c0.64,0.78,1.13,2.11,1.47,3.95c0.34,1.83,0.49,3.93,0.45,6.29c-0.05,2.65-0.28,4.53-0.69,5.67
		c-0.41,1.15-0.96,1.38-1.66,0.71c-0.08-0.08-0.21-0.23-0.39-0.46c-0.01-0.01-0.01-0.02-0.02-0.02c0.32-0.44,0.56-1.14,0.73-2.11
		c0.17-0.97,0.25-2.25,0.28-3.88c0.03-1.6-0.04-2.97-0.2-4.12c-0.17-1.16-0.41-1.93-0.73-2.31c-0.05,3.36-0.11,6.72-0.16,10.06
		c-0.05,3.33-0.11,6.67-0.16,9.98c-0.02,1.53-0.01,2.66,0.03,3.4c0.05,0.73,0.13,1.44,0.26,2.13c-0.88-0.7-1.78-1.41-2.7-2.13
		c0.16-0.48,0.28-1.04,0.35-1.7c0.07-0.66,0.12-1.77,0.15-3.34c0.05-3.28,0.1-6.58,0.15-9.88c0.05-3.31,0.1-6.63,0.15-9.96
		c0.02-1.6,0.01-2.8-0.04-3.57c-0.05-0.78-0.14-1.57-0.29-2.37C334.97,324.25,335.98,325.47,336.96,326.66 M332.17,347.23
		c-0.02,1.62-0.01,2.81,0.04,3.6c0.05,0.77,0.15,1.52,0.3,2.25c-0.98-0.77-1.97-1.55-2.99-2.36c0.17-0.5,0.29-1.09,0.37-1.78
		c0.08-0.7,0.13-1.87,0.15-3.54c0.05-3.46,0.1-6.93,0.15-10.41c0.05-3.49,0.1-6.99,0.15-10.5c0.02-1.75,0.01-3.02-0.05-3.83
		c-0.06-0.81-0.16-1.62-0.32-2.45c1.03,1.25,2.03,2.46,3.01,3.64c-0.16,0.44-0.28,0.97-0.36,1.63c-0.07,0.65-0.12,1.79-0.15,3.44
		c-0.05,3.41-0.1,6.81-0.15,10.2C332.27,340.49,332.22,343.86,332.17,347.23z M322.75,345.37c0.21-0.52,0.35-1.16,0.44-1.91
		c0.09-0.75,0.15-2.02,0.17-3.83c0.04-3.76,0.09-7.54,0.13-11.33c0.04-3.8,0.09-7.61,0.13-11.44c0.02-1.91-0.01-3.31-0.08-4.2
		c-0.07-0.88-0.2-1.79-0.39-2.72c1.22,1.47,2.4,2.91,3.55,4.3c-0.19,0.46-0.33,1.05-0.41,1.74c-0.09,0.69-0.14,1.94-0.16,3.73
		c-0.05,3.75-0.09,7.49-0.14,11.21c-0.05,3.71-0.09,7.42-0.14,11.11c0.24,0.51,0.47,0.93,0.69,1.27c0.22,0.33,0.44,0.6,0.67,0.78
		c0.3,0.25,0.59,0.31,0.85,0.19c0.27-0.13,0.55-0.45,0.83-0.99c-0.18,2.16-0.35,4.34-0.52,6.51
		C326.58,348.39,324.71,346.92,322.75,345.37z M321.02,337.61c-0.02,1.86,0.01,3.24,0.08,4.15c0.08,0.9,0.21,1.78,0.4,2.63
		c-1.28-1.01-2.6-2.05-3.95-3.12c0.23-0.56,0.39-1.22,0.49-2.01c0.1-0.79,0.16-2.14,0.18-4.06c0.04-4.01,0.08-8.02,0.12-12.04
		c0.04-4.04,0.08-8.09,0.12-12.16c0.02-2.04-0.01-3.53-0.09-4.48c-0.08-0.95-0.23-1.92-0.45-2.92c1.37,1.66,2.69,3.27,3.99,4.83
		c-0.21,0.47-0.36,1.08-0.46,1.82c-0.09,0.73-0.15,2.05-0.17,3.95c-0.04,3.93-0.09,7.86-0.13,11.77
		C321.1,329.85,321.06,333.74,321.02,337.61z M312.51,313c0.02-2.89,0.04-5.79,0.07-8.7c0.02-2.01-0.03-3.57-0.13-4.65
		c-0.1-1.07-0.27-2.17-0.53-3.32c1.58,1.9,3.09,3.74,4.56,5.52c-0.24,0.51-0.42,1.16-0.52,1.95c-0.11,0.8-0.17,2.18-0.18,4.13
		c-0.04,4.19-0.07,8.38-0.11,12.54c-0.03,4.15-0.07,8.29-0.11,12.41c-0.02,1.9,0.02,3.36,0.11,4.35c0.09,0.99,0.25,1.96,0.48,2.91
		c-1.46-1.16-2.96-2.34-4.51-3.57c0.25-0.6,0.44-1.33,0.56-2.19c0.11-0.85,0.18-2.28,0.19-4.25c0.03-3.62,0.06-7.25,0.08-10.89
		c-1.29-1.27-2.61-2.56-3.98-3.89c-0.03,3.79-0.05,7.59-0.07,11.36c-0.01,2.14,0.03,3.74,0.14,4.78c0.1,1.05,0.29,2.07,0.54,3.08
		c-1.68-1.33-3.41-2.7-5.21-4.11c0.3-0.61,0.5-1.36,0.63-2.27c0.12-0.9,0.19-2.46,0.2-4.68c0.02-4.62,0.05-9.26,0.07-13.92
		c0.02-4.67,0.05-9.37,0.07-14.08c0.01-2.35-0.04-4.08-0.15-5.19c-0.12-1.12-0.31-2.27-0.61-3.49c1.82,2.2,3.58,4.33,5.28,6.39
		c-0.28,0.5-0.47,1.17-0.58,2.02c-0.11,0.83-0.19,2.33-0.2,4.52c-0.02,3.03-0.04,6.05-0.06,9.08
		C309.89,310.27,311.22,311.66,312.51,313z M298.08,279.56c1.53,1.86,2.71,4.42,3.56,7.63c0.83,3.17,1.24,6.58,1.23,10.23
		c-0.02,4.09-0.47,6.84-1.38,8.29c-0.92,1.47-2.19,1.42-3.84-0.18c-0.19-0.19-0.51-0.54-0.93-1.05c-0.02-0.02-0.04-0.04-0.06-0.06
		c0.74-0.42,1.29-1.34,1.64-2.74c0.35-1.39,0.52-3.35,0.53-5.89c0.01-2.51-0.2-4.73-0.62-6.68c-0.43-1.99-1.04-3.45-1.81-4.35
		c-0.01,5.32-0.02,10.61-0.03,15.87c-0.01,5.24-0.02,10.48-0.03,15.69c0,2.39,0.06,4.18,0.2,5.39c0.14,1.18,0.37,2.35,0.69,3.52
		c-2.1-1.66-4.29-3.4-6.55-5.2c0.36-0.66,0.61-1.5,0.76-2.5c0.15-1.01,0.23-2.76,0.23-5.26c0-5.23,0.01-10.48,0.01-15.75
		c0-5.29,0-10.62,0-15.96c0-2.57-0.08-4.52-0.23-5.83c-0.15-1.32-0.4-2.69-0.77-4.13C293.26,273.71,295.72,276.7,298.08,279.56z"/>
	<path class="st4" d="M336.04,373.13c-0.01,0.8-0.01,1.4,0.02,1.8c0.03,0.4,0.07,0.77,0.15,1.12c-0.33-0.17-0.66-0.34-0.99-0.51
		c0.08-0.27,0.14-0.59,0.18-0.96c0.04-0.37,0.07-0.95,0.08-1.76c0.06-3.45,0.11-6.91,0.17-10.38c0.01-0.81,0.01-1.42-0.02-1.83
		c-0.03-0.42-0.08-0.8-0.15-1.15c0.42,0.31,0.83,0.62,1.25,0.92c0.35,0.25,0.62,0.82,0.82,1.71c0.2,0.88,0.28,1.92,0.26,3.09
		c-0.01,0.85-0.09,1.56-0.22,2.13c-0.14,0.58-0.34,1.02-0.62,1.36c0.27,1.99,0.55,3.97,0.82,5.92c0.05,0.35,0.1,0.72,0.17,1.11
		c0.07,0.39,0.15,0.81,0.24,1.24c-0.09-0.01-0.18-0.01-0.27-0.02c-0.01-0.01-0.03-0.02-0.04-0.02c-0.12-0.06-0.25-0.28-0.36-0.63
		c-0.11-0.36-0.21-0.83-0.28-1.39c-0.31-2.33-0.62-4.69-0.94-7.07c0.32-0.11,0.55-0.39,0.71-0.84c0.16-0.45,0.24-1.1,0.25-1.95
		c0.01-0.8-0.04-1.49-0.15-2.07c-0.11-0.59-0.27-0.95-0.47-1.1c-0.04-0.03-0.1-0.05-0.17-0.07c-0.07-0.01-0.14-0.01-0.23,0
		C336.17,365.58,336.1,369.36,336.04,373.13 M332.37,374.09c0.09-0.28,0.15-0.61,0.2-0.99c0.04-0.38,0.07-0.99,0.08-1.83
		c0.05-3.59,0.11-7.18,0.16-10.79c0.01-0.85,0-1.48-0.03-1.91c-0.03-0.43-0.08-0.83-0.16-1.2c0.72,0.52,1.42,1.04,2.12,1.55
		c-0.01,0.86-0.03,1.71-0.04,2.57c-0.09-0.38-0.18-0.68-0.29-0.9c-0.11-0.22-0.24-0.39-0.38-0.49c-0.07-0.05-0.16-0.08-0.25-0.1
		c-0.09-0.01-0.2-0.01-0.32,0c-0.03,1.56-0.05,3.12-0.07,4.68c0.31,0.2,0.62,0.4,0.93,0.6c-0.01,0.8-0.02,1.59-0.04,2.38
		c-0.04-0.25-0.1-0.44-0.17-0.58c-0.07-0.14-0.21-0.27-0.41-0.39c-0.11-0.07-0.23-0.14-0.35-0.22c-0.03,1.97-0.06,3.95-0.09,5.91
		c0.15,0.18,0.28,0.32,0.4,0.43c0.11,0.11,0.21,0.19,0.3,0.24c0.19,0.1,0.38,0.09,0.55-0.04c0.17-0.12,0.34-0.38,0.51-0.74
		c-0.11,1-0.21,2-0.31,3.01C333.94,374.89,333.17,374.49,332.37,374.09z M329.35,372.55c0.09-0.28,0.16-0.63,0.2-1.02
		c0.05-0.4,0.08-1.03,0.09-1.9c0.05-3.73,0.1-7.47,0.15-11.22c0.01-0.88,0-1.55-0.03-1.99c-0.04-0.45-0.09-0.87-0.17-1.26
		c0.39,0.29,0.77,0.57,1.16,0.85c-0.09,0.26-0.16,0.58-0.21,0.97c-0.04,0.38-0.07,1.02-0.09,1.89c-0.05,3.99-0.12,7.98-0.17,11.95
		c0.17,0.19,0.31,0.34,0.43,0.45c0.13,0.12,0.24,0.2,0.33,0.25c0.2,0.11,0.41,0.1,0.59-0.03c0.18-0.13,0.36-0.39,0.55-0.76
		c-0.11,1.04-0.22,2.08-0.32,3.12C331.05,373.41,330.21,372.98,329.35,372.55z M325.46,368.09c-0.02,0.17-0.04,0.35-0.05,0.55
		c-0.01,0.19-0.02,0.39-0.03,0.6c0,0.18,0.01,0.38,0.05,0.6c0.03,0.23,0.08,0.49,0.15,0.79c-0.38-0.19-0.76-0.38-1.13-0.58
		c0.1-0.2,0.19-0.49,0.27-0.89c0.08-0.38,0.16-0.93,0.25-1.64c0.5-4.1,1-8.16,1.49-12.2c0.03-0.23,0.06-0.45,0.07-0.68
		c0.01-0.23,0.02-0.44,0.03-0.62c0-0.21-0.01-0.42-0.03-0.6c-0.02-0.19-0.06-0.4-0.12-0.62c0.35,0.26,0.7,0.52,1.05,0.77
		c0.21,2.68,0.41,5.34,0.62,7.98c0.2,2.62,0.4,5.22,0.6,7.79c0.05,0.69,0.12,1.27,0.19,1.72c0.07,0.45,0.16,0.91,0.27,1.36
		c-0.41-0.21-0.83-0.42-1.25-0.64c0.01-0.02,0.01-0.04,0.02-0.05c0.13-0.43,0.19-0.76,0.19-0.99c0-0.27-0.02-0.68-0.06-1.23
		c-0.01-0.09-0.01-0.15-0.01-0.2c-0.11-1.43-0.22-2.87-0.33-4.32c-0.56-0.33-1.13-0.67-1.71-1.01
		C325.8,365.36,325.64,366.72,325.46,368.09z M326.18,362.3c0.45,0.28,0.91,0.56,1.35,0.83c-0.18-2.44-0.36-4.89-0.55-7.36
		C326.71,357.94,326.45,360.11,326.18,362.3z M320.91,368.24c0.12-0.31,0.2-0.68,0.25-1.13c0.05-0.44,0.09-1.13,0.1-2.1
		c0.05-4.13,0.09-8.29,0.14-12.45c0.01-0.98-0.01-1.71-0.05-2.21c-0.04-0.5-0.11-0.97-0.22-1.42c0.96,0.7,1.89,1.38,2.8,2.05
		c-0.01,0.99-0.02,1.97-0.03,2.95c-0.12-0.44-0.24-0.8-0.39-1.07c-0.14-0.26-0.31-0.47-0.51-0.61c-0.1-0.07-0.21-0.12-0.34-0.15
		c-0.12-0.03-0.26-0.04-0.42-0.03c-0.02,1.8-0.04,3.6-0.06,5.4c0.41,0.27,0.83,0.53,1.24,0.8c-0.01,0.91-0.02,1.83-0.03,2.73
		c-0.05-0.29-0.13-0.51-0.23-0.68c-0.1-0.17-0.28-0.33-0.55-0.5c-0.15-0.09-0.3-0.19-0.46-0.28c-0.03,2.28-0.05,4.55-0.08,6.82
		c0.19,0.21,0.37,0.39,0.53,0.53c0.15,0.13,0.29,0.23,0.4,0.29c0.26,0.14,0.49,0.14,0.72,0c0.22-0.13,0.45-0.4,0.67-0.81
		c-0.13,1.14-0.26,2.28-0.39,3.43C322.99,369.3,321.97,368.78,320.91,368.24z M315.42,365.45c0.13-0.32,0.23-0.7,0.28-1.16
		c0.05-0.46,0.09-1.22,0.1-2.28c0.04-4.4,0.08-8.82,0.12-13.25c0.01-1.08-0.01-1.88-0.06-2.4c-0.04-0.51-0.13-1.01-0.25-1.47
		c0.69,0.5,1.37,1,2.04,1.5c0.52,0.38,0.96,0.88,1.3,1.5c0.34,0.61,0.63,1.42,0.91,2.44c0.31,1.13,0.53,2.35,0.67,3.66
		c0.14,1.31,0.21,2.7,0.19,4.17c-0.02,1.33-0.08,2.53-0.21,3.6c-0.13,1.06-0.32,1.99-0.56,2.78c-0.3,0.97-0.65,1.61-1.08,1.9
		c-0.43,0.29-0.99,0.27-1.68-0.09C316.6,366.05,316.02,365.75,315.42,365.45z M316.71,363.66c0.21,0.22,0.39,0.41,0.54,0.55
		c0.15,0.13,0.28,0.23,0.39,0.28c0.62,0.33,1.14-0.14,1.55-1.39c0.41-1.25,0.62-3,0.65-5.25c0.03-2.31-0.15-4.3-0.52-5.98
		c-0.38-1.71-0.92-2.8-1.58-3.28c-0.14-0.1-0.29-0.17-0.44-0.21c-0.15-0.04-0.3-0.03-0.45,0.01
		C316.8,353.5,316.75,358.59,316.71,363.66z M308.8,362.08c0.15-0.35,0.26-0.77,0.32-1.27c0.06-0.49,0.1-1.29,0.11-2.4
		c0.03-4.71,0.06-9.46,0.1-14.21c0.01-1.12-0.02-1.96-0.08-2.54c-0.06-0.58-0.16-1.13-0.3-1.65c1.24,0.91,2.45,1.8,3.63,2.66
		c-0.01,1.12-0.02,2.24-0.03,3.36c-0.15-0.52-0.32-0.94-0.51-1.26c-0.19-0.32-0.41-0.57-0.66-0.74c-0.13-0.09-0.27-0.16-0.44-0.21
		c-0.16-0.05-0.34-0.08-0.55-0.08c-0.01,2.05-0.03,4.11-0.05,6.16c0.54,0.35,1.08,0.7,1.61,1.03c-0.01,1.04-0.02,2.08-0.02,3.12
		c-0.07-0.34-0.17-0.6-0.3-0.8c-0.12-0.19-0.36-0.4-0.7-0.61c-0.2-0.12-0.4-0.25-0.6-0.37c-0.02,2.59-0.04,5.18-0.05,7.77
		c0.25,0.27,0.48,0.48,0.68,0.65c0.2,0.17,0.37,0.3,0.52,0.37c0.33,0.17,0.63,0.18,0.92,0.05c0.29-0.13,0.57-0.42,0.85-0.87
		c-0.16,1.29-0.31,2.59-0.47,3.88C311.5,363.45,310.17,362.77,308.8,362.08z M308.05,357.23c-0.18,1.24-0.36,2.48-0.54,3.72
		c-0.34,0.16-0.65,0.26-0.95,0.28c-0.29,0.02-0.57-0.04-0.85-0.18c-0.4-0.2-0.8-0.56-1.19-1.09c-0.38-0.52-0.76-1.21-1.12-2.06
		c-0.56-1.33-1-3.01-1.32-5.01c-0.32-2.01-0.48-4.14-0.47-6.36c0.01-1.66,0.14-3.21,0.38-4.61c0.24-1.42,0.57-2.58,1.01-3.49
		c0.4-0.82,0.85-1.32,1.34-1.53c0.49-0.21,1.01-0.11,1.56,0.29c0.25,0.19,0.52,0.46,0.79,0.81c0.28,0.35,0.57,0.79,0.88,1.33
		c-0.01,1.21-0.02,2.42-0.02,3.62c-0.32-0.76-0.62-1.38-0.91-1.84c-0.29-0.47-0.57-0.8-0.85-1c-0.82-0.58-1.5-0.25-2.02,1
		c-0.52,1.26-0.79,3.24-0.81,5.92c-0.01,2.93,0.24,5.45,0.77,7.54c0.52,2.07,1.19,3.3,2.03,3.75c0.34,0.18,0.69,0.18,1.07,0
		C307.22,358.15,307.63,357.79,308.05,357.23z M300.44,353.57c0,1.21,0.03,2.13,0.1,2.74c0.07,0.62,0.19,1.2,0.36,1.74
		c-0.73-0.37-1.47-0.75-2.23-1.14c0.18-0.37,0.31-0.83,0.38-1.38c0.07-0.55,0.12-1.43,0.12-2.65c0.02-5.21,0.04-10.45,0.05-15.71
		c0-1.23-0.03-2.17-0.1-2.81c-0.07-0.65-0.2-1.26-0.38-1.86c0.76,0.56,1.51,1.11,2.25,1.65c-0.18,0.32-0.3,0.75-0.38,1.29
		c-0.07,0.53-0.11,1.4-0.12,2.62C300.48,343.24,300.46,348.43,300.44,353.57z M292.72,349.33c0,1.29,0.05,2.27,0.13,2.94
		c0.08,0.66,0.22,1.3,0.41,1.88c-0.85-0.43-1.7-0.87-2.55-1.3c0.2-0.4,0.34-0.89,0.42-1.48c0.08-0.59,0.13-1.53,0.13-2.85
		c0-5.61,0-11.24,0-16.9c0-1.33-0.04-2.34-0.12-3.03c-0.08-0.7-0.23-1.37-0.43-2.01c1.08,0.8,2.17,1.59,3.23,2.37
		c0.9,0.66,1.61,1.79,2.14,3.35c0.52,1.56,0.78,3.28,0.78,5.16c0,1.36-0.16,2.46-0.48,3.3c-0.32,0.84-0.81,1.45-1.5,1.83
		c0.77,3.38,1.52,6.69,2.25,9.95c0.13,0.58,0.29,1.21,0.47,1.87c0.18,0.66,0.38,1.35,0.61,2.08c-0.21-0.06-0.43-0.1-0.65-0.16
		c-0.03-0.02-0.07-0.04-0.11-0.05c-0.31-0.16-0.62-0.55-0.91-1.17c-0.3-0.63-0.54-1.43-0.75-2.36c-0.87-3.92-1.77-7.9-2.66-11.95
		c0.8,0,1.39-0.32,1.76-0.95c0.37-0.63,0.56-1.63,0.56-3c0-1.27-0.15-2.42-0.47-3.45c-0.32-1.05-0.74-1.73-1.25-2.1
		c-0.12-0.09-0.26-0.16-0.42-0.22c-0.17-0.06-0.36-0.12-0.57-0.15C292.73,337.1,292.73,343.24,292.72,349.33z"/>
	<path class="st0" d="M152.71,387.61c2.69,0.51,4.97,0.29,6.84-0.48c3.34-1.61,1.67-5.43-1.25-6.3c-2.13-0.7-3.67,0.89-6-1.16
		c-3.32-2.37-5.07-1.35-4.54,1.04c0.32,1.66,0.92,3.28,2.05,5.06C150.55,386.94,150.9,387.26,152.71,387.61"/>
	<path class="st4" d="M235.64,374.63c-0.01-0.46-0.12-0.77-0.35-0.97c-0.81-0.7-4.51-0.22-5.5,0.13c-0.66,0.24-1.4,0.69-1.63,1.24
		l-2.46,5.77c-0.47,1.11-0.77,3.16,1.97,3.22c2.64,0.16,5.26,0.22,7.86,0.17c2.66-0.05,5.61-0.04,8.23-0.57
		c0.82-0.17,1.61-0.44,2.4-0.93c3.37-2.08,4.35-6.33,4.4-9.35c0.03-0.78-0.77-1.16-2.14-1.29c-0.94-0.09-2.43-0.04-2.98,0
		c-1.06,0.08-2.19-0.42-2.17,1.86l0.02,2.4c0,1.59-1.93,1.54-3.87,1.6c-1.88,0.06-3.77-0.13-3.78-1.07"/>
	<path class="st4" d="M257.65,254.2c-29.35-3.73-61.42,0.62-90.38,7.29c-12.71,5.1-18.12,16.47-18.52,32.12
		c-4.04-0.21-6.97,0.2-8.75,1.25c-1.86,1.1-2.08,2.81-2.32,4.68c-0.5,3.81-0.88,10.59-0.73,14.9c0.07,1.97,0.1,4.25,1.75,5.7
		c0.98,0.87,2.38,1.38,3.99,1.34l0.1,41.12c0.01,2.52,1.99,3.68,4.96,3.48l41.67-0.1c25.73-0.2,48.99-1.2,63.44-5.03
		c1.88-0.73,1.45-2.08-1.09-1.83c-22.81,1.07-51.23,1.15-82.13,0.9l-3.79,2.78l-5.5-5.1l-6.6-0.76c-2.83,0.29-4.41-1.86-5.56-6.44
		c-1.43-5.7-2.06-13.31-0.74-13.44l7.04-5.13l3.35-0.07c3.38,8.22,7.08,15.79,11.52,22.52c1.02,1.45,2.04,2.52,4.31,2.42
		c14.48,0.18,29.27,0.07,44.45-0.41c2.2-2.4,4.1-5.08,5.77-7.97c-14.73,0.77-29.83,1.05-45.44,0.66c-2.64,0.01-2.38-3.81-0.01-3.87
		c16.15-0.29,32.26-1.08,47.88-2.2c2.26-2.43,3.69-4.96,5.07-7.55c-19.39,0.89-38.91,1.56-58.65,1.79
		c-1.01-0.01-1.68-0.98-1.68-1.97c0-0.99,0.67-1.98,1.81-2.03l60.39-3.31c1.75-2.57,3.32-5.39,4.71-8.46
		c-26.28,0.68-53.64,1.55-84.5,1.56c-1.43,0.09-2.21-1.02-2.26-2.28s0.63-2.68,3.15-2.71l82.28-3.21c5.59,0.05,6.71-1.08,7.62-2.96
		c0.85-1.77,1.56-8.54,1.81-12.47c0.29-4.65,0.5-9.29,0.57-13.31c-0.03-1.05-0.18-2.04-1.1-2.6c-9.14-4.71-49.57-1.38-88.05,4.26
		c-0.5-3.12,1.35-5.18,4.1-5.54c29.43-5,58.05-7.73,85.36-6.8C249.21,266.21,252.6,258.84,257.65,254.2"/>
	<path class="st4" d="M154.28,330.28l-8.5,3.21l1.2,4.14c0.71-0.97,1.52-0.54,2.3,1.07c1.52,3.14,4.23,8.99,5.63,12.04
		c1.06,2.35,0.93,3.78,0.47,4.78c-0.53,1.14-1.66,1.57-2.75,1.48l-1.27,7.07l12.58,1.2l2.98-0.87l12.84-3.31l-3.91-1.04
		c-5.81,0.14-9.93,0.15-11.75-3.11C160.04,348.88,156.76,339.99,154.28,330.28"/>
	<path class="st4" d="M251.55,324.04c-0.57-3.2-2.71-2.76-4.18-0.66c-5.91,8.2-10.45,17.23-14.6,26.59
		c-0.77,1.63-1.14,3.81,2.97,4.07c7.97,0.25,13.7-0.94,15.35-3.02c2.06-2.77-0.09-4.99-1.98-5.24c-2.82-0.29-4.26,0.84-6.88,1.17
		c0.33-3.57,1.59-9.02,2.47-10.16c1.49-1.96,1.77-0.48,2.49,0.42c1.05,1.3,3.24,1.73,4.17-1.75
		C252.13,332.56,252.19,328.76,251.55,324.04"/>
	<path class="st4" d="M270.17,358.5c-4.6,0-8.35,11.82-8.35,26.32c0,14.5,3.75,26.32,8.35,26.32c4.6,0,8.35-11.82,8.35-26.32
		C278.52,370.33,274.77,358.5,270.17,358.5"/>
	<path class="st4" d="M269.68,361.1c-3.16,0-4.2,15.41-7.38,24.97c-1.45,4.34-6.93,1.4-6.93,5.93c0,2.94-8.02-1.39-7.73,1.26
		c1.12,10.39,4.25,17.9,7.91,17.9c4.6,0,8.35-11.82,8.35-26.32C263.89,370.33,274.28,361.1,269.68,361.1"/>
	<path class="st4" d="M263.22,395.59c-5.14,0-9.72,13.56-9.72,14.51c0,0.95,4.19,1.73,9.33,1.73c5.14,0,9.33-0.78,9.33-1.73
		C272.16,409.15,268.36,395.59,263.22,395.59"/>
	<path class="st4" d="M330.3,383.89c-2.2,0-3.99,5.65-3.99,12.58c0,6.93,1.79,12.58,3.99,12.58c2.2,0,3.99-5.65,3.99-12.58
		C334.3,389.54,332.5,383.89,330.3,383.89"/>
	<path class="st4" d="M330.07,385.13c-1.51,0-2.01,7.37-3.53,11.93c-0.69,2.08-3.31,0.67-3.31,2.83c0,1.41-3.83-0.66-3.7,0.6
		c0.53,4.96,2.03,8.55,3.78,8.55c2.2,0,3.99-5.65,3.99-12.58C327.3,389.54,332.27,385.13,330.07,385.13"/>
	<path class="st4" d="M326.98,401.62c-2.46,0-4.64,6.48-4.64,6.93c0,0.46,2,0.83,4.46,0.83c2.46,0,4.46-0.37,4.46-0.83
		C331.26,408.1,329.44,401.62,326.98,401.62"/>
	<path class="st4" d="M319.33,379.14c-2.63,0-4.78,6.77-4.78,15.07c0,8.3,2.15,15.07,4.78,15.07s4.78-6.77,4.78-15.07
		C324.11,385.91,321.97,379.14,319.33,379.14"/>
	<path class="st4" d="M319.05,380.63c-1.81,0-2.41,8.82-4.23,14.29c-0.83,2.49-3.97,0.8-3.97,3.39c0,1.69-4.59-0.79-4.43,0.72
		c0.64,5.95,2.43,10.24,4.53,10.24c2.63,0,4.78-6.77,4.78-15.07C315.74,385.91,321.69,380.63,319.05,380.63"/>
	<path class="st4" d="M315.36,400.37c-2.94,0-5.56,7.76-5.56,8.31c0,0.55,2.4,0.99,5.34,0.99c2.94,0,5.34-0.44,5.34-0.99
		C320.47,408.13,318.3,400.37,315.36,400.37"/>
	<path class="st4" d="M319.65,383.8c-2.2,0-3.99,5.65-3.99,12.58s1.79,12.58,3.99,12.58c2.2,0,3.99-5.65,3.99-12.58
		S321.85,383.8,319.65,383.8"/>
	<path class="st4" d="M319.41,385.04c-1.51,0-2.01,7.37-3.53,11.93c-0.69,2.08-3.31,0.67-3.31,2.83c0,1.41-3.83-0.66-3.7,0.6
		c0.53,4.96,2.03,8.55,3.78,8.55c2.2,0,3.99-5.65,3.99-12.58C316.65,389.45,321.61,385.04,319.41,385.04"/>
	<path class="st4" d="M316.33,401.53c-2.46,0-4.64,6.48-4.64,6.93c0,0.46,2,0.83,4.46,0.83c2.46,0,4.46-0.37,4.46-0.83
		C320.6,408,318.78,401.53,316.33,401.53"/>
	<path class="st4" d="M308.68,379.05c-2.63,0-4.78,6.77-4.78,15.07c0,8.3,2.15,15.07,4.78,15.07c2.63,0,4.78-6.77,4.78-15.07
		C313.46,385.82,311.31,379.05,308.68,379.05"/>
	<path class="st4" d="M308.4,380.54c-1.81,0-2.41,8.82-4.23,14.29c-0.83,2.49-3.97,0.8-3.97,3.39c0,1.69-4.59-0.79-4.43,0.72
		c0.64,5.95,2.43,10.24,4.53,10.24c2.63,0,4.78-6.77,4.78-15.07C305.08,385.82,311.03,380.54,308.4,380.54"/>
	<path class="st4" d="M304.7,400.28c-2.94,0-5.56,7.76-5.56,8.3c0,0.55,2.4,0.99,5.34,0.99c2.94,0,5.34-0.44,5.34-0.99
		C309.82,408.04,307.64,400.28,304.7,400.28"/>
	<path class="st0" d="M274.28,366.29c-3.42,0-6.2,8.63-6.2,19.22c0,10.58,2.79,19.22,6.2,19.22c3.42,0,6.2-8.63,6.2-19.22
		C280.48,374.92,277.69,366.29,274.28,366.29"/>
	<path class="st0" d="M332.27,387.61c-1.63,0-2.96,4.13-2.96,9.18c0,5.06,1.33,9.18,2.96,9.18c1.63,0,2.96-4.13,2.96-9.18
		C335.23,391.74,333.9,387.61,332.27,387.61"/>
	<path class="st0" d="M321.69,383.6c-1.95,0-3.55,4.94-3.55,11c0,6.06,1.59,11,3.55,11c1.96,0,3.55-4.94,3.55-11
		C325.24,388.54,323.64,383.6,321.69,383.6"/>
	<path class="st4" d="M189.94,460.7v-3.13h2.86v3.13 M176.88,460.7v-22.35h5.02c1.64,0,2.84,0.49,3.58,1.45
		c0.74,0.97,1.11,2.4,1.11,4.29l0.01,10.08c0,2.25-0.37,3.91-1.12,4.96c-0.75,1.05-1.98,1.57-3.69,1.57H176.88z M180.29,458.06h1.12
		c0.62,0,1.08-0.2,1.37-0.61c0.28-0.41,0.42-1.15,0.42-2.24l-0.01-11.04c0-1.16-0.14-1.99-0.42-2.48c-0.29-0.49-0.77-0.74-1.47-0.74
		h-1V458.06z M169.04,460.7v-19.41h-2.61v-2.94h8.52v2.94h-2.51v19.41H169.04z M155.9,454.42v-1.99h3.23v2.25
		c0,1.25,0.11,2.12,0.32,2.62c0.21,0.51,0.61,0.76,1.19,0.76c0.59,0,0.97-0.21,1.16-0.62c0.19-0.42,0.29-1.09,0.29-2.03
		c0-0.94-0.17-1.76-0.51-2.46c-0.34-0.7-0.88-1.43-1.61-2.19l-1.65-1.7c-0.77-0.81-1.37-1.64-1.8-2.51c-0.42-0.86-0.64-1.86-0.64-3
		c0-1.85,0.36-3.22,1.07-4.11c0.71-0.9,1.94-1.35,3.67-1.35c1.73,0,2.91,0.52,3.52,1.57c0.62,1.04,0.92,2.57,0.92,4.58v1.39h-3.13
		v-1.6c0-1.08-0.1-1.86-0.28-2.33c-0.19-0.47-0.54-0.71-1.07-0.71c-0.53,0-0.91,0.18-1.14,0.53c-0.23,0.36-0.35,0.89-0.35,1.6
		c0,0.71,0.12,1.28,0.36,1.7c0.23,0.42,0.66,0.97,1.28,1.63l1.84,1.99c0.92,1,1.62,2.01,2.09,3.03c0.47,1.02,0.71,2.14,0.71,3.36
		c0,2.09-0.35,3.63-1.05,4.63c-0.7,1-1.93,1.5-3.69,1.5c-1.76,0-2.98-0.56-3.67-1.67C156.25,458.17,155.9,456.55,155.9,454.42z
		 M145.92,460.7v-22.35h7.49v2.93h-4.09v6.5h3.88v2.87h-3.88v7.11h4.24v2.93H145.92z"/>
	<path class="st4" d="M330.25,459.36c-0.8,1.07-2.09,1.6-3.85,1.6c-1.77,0-3.06-0.54-3.85-1.6c-0.8-1.07-1.2-2.63-1.2-4.7v-10.68
		c0-1.97,0.4-3.44,1.21-4.43c0.81-0.99,2.09-1.48,3.84-1.48c1.75,0,3.03,0.49,3.84,1.48c0.81,0.98,1.21,2.46,1.21,4.43v10.68
		C331.45,456.73,331.05,458.3,330.25,459.36 M326.36,458.03c0.54,0,0.95-0.21,1.25-0.63c0.29-0.42,0.44-1.31,0.44-2.68v-10.89
		c-0.01-1.65-0.39-2.58-1.16-2.78c-0.15-0.03-0.39-0.05-0.73-0.05c-0.34,0-0.66,0.16-0.97,0.49c-0.31,0.33-0.46,1.11-0.46,2.32v10.9
		c0,1.39,0.14,2.28,0.41,2.69C325.42,457.83,325.82,458.03,326.36,458.03z M317.42,459.36c-0.8,1.07-2.08,1.6-3.85,1.6
		c-1.77,0-3.06-0.54-3.85-1.6c-0.8-1.07-1.2-2.63-1.2-4.7v-10.68c0-1.97,0.4-3.44,1.21-4.43c0.81-0.99,2.09-1.48,3.84-1.48
		c1.75,0,3.03,0.49,3.84,1.48c0.81,0.98,1.21,2.46,1.21,4.43v10.68C318.62,456.73,318.22,458.3,317.42,459.36z M313.53,458.03
		c0.54,0,0.95-0.21,1.25-0.63c0.29-0.42,0.44-1.31,0.44-2.68v-10.89c-0.01-1.65-0.39-2.58-1.16-2.78c-0.15-0.03-0.39-0.05-0.73-0.05
		c-0.34,0-0.66,0.16-0.97,0.49c-0.31,0.33-0.46,1.11-0.46,2.32v10.9c0,1.39,0.14,2.28,0.41,2.69
		C312.59,457.83,312.99,458.03,313.53,458.03z M304.59,459.36c-0.8,1.07-2.09,1.6-3.85,1.6c-1.77,0-3.06-0.54-3.85-1.6
		c-0.8-1.07-1.2-2.63-1.2-4.7v-10.68c0-1.97,0.4-3.44,1.21-4.43c0.81-0.99,2.09-1.48,3.84-1.48c1.75,0,3.03,0.49,3.84,1.48
		c0.81,0.98,1.21,2.46,1.21,4.43v10.68C305.79,456.73,305.39,458.3,304.59,459.36z M300.7,458.03c0.54,0,0.95-0.21,1.25-0.63
		c0.29-0.42,0.44-1.31,0.44-2.68v-10.89c-0.01-1.65-0.39-2.58-1.16-2.78c-0.15-0.03-0.39-0.05-0.73-0.05
		c-0.34,0-0.66,0.16-0.97,0.49c-0.31,0.33-0.46,1.11-0.46,2.32v10.9c0,1.39,0.14,2.28,0.41,2.69
		C299.76,457.83,300.16,458.03,300.7,458.03z M284.33,460.7v-1.32c0-1.17,0.19-2.32,0.58-3.45c0.39-1.13,0.99-2.41,1.81-3.85
		c0.03-0.05,0.34-0.58,0.92-1.59c0.59-1.01,1.01-1.7,1.28-2.08c0.66-1.08,0.99-2.58,0.99-4.5c0-1.92-0.41-2.87-1.22-2.87
		c-0.68,0-1.1,0.53-1.26,1.6c-0.07,0.46-0.1,1.03-0.1,1.72v2.83h-3.25v-1.37c0-2.77,0.26-4.64,0.78-5.61
		c0.52-0.98,1.24-1.6,2.15-1.87c0.51-0.15,1.12-0.23,1.84-0.23c0.72,0,1.37,0.16,1.94,0.48c0.56,0.32,1.01,0.77,1.34,1.35
		c0.66,1.13,0.99,2.59,0.99,4.4c0,1.81-0.35,3.39-1.05,4.76c-0.7,1.37-1.4,2.58-2.09,3.63c-1.25,1.94-2.06,3.72-2.44,5.32h5.15v2.67
		H284.33z"/>
	<path class="st5" d="M256.94,491.43l-0.51-1.95c0.63,0.42,1.23,0.73,1.82,0.93c0.59,0.2,1.17,0.31,1.75,0.31
		c0.74,0,1.33-0.16,1.78-0.48c0.45-0.32,0.67-0.73,0.67-1.23c0-0.15-0.02-0.29-0.07-0.43c-0.05-0.14-0.11-0.28-0.2-0.41
		c-0.2-0.29-0.85-0.71-1.97-1.26c-0.28-0.13-0.5-0.24-0.66-0.32c-1.05-0.53-1.77-1.01-2.16-1.45c-0.39-0.44-0.58-0.97-0.58-1.58
		c0-0.87,0.36-1.56,1.07-2.08c0.71-0.51,1.69-0.77,2.93-0.77c0.36,0,0.75,0.02,1.18,0.07c0.43,0.05,0.89,0.12,1.39,0.22v1.81
		c-0.44-0.34-0.89-0.59-1.34-0.75c-0.45-0.17-0.92-0.25-1.4-0.25c-0.62,0-1.11,0.13-1.49,0.39c-0.37,0.26-0.56,0.61-0.56,1.03
		c0,0.38,0.15,0.71,0.44,1c0.29,0.29,0.95,0.68,1.98,1.16c0.06,0.03,0.15,0.07,0.26,0.12c0.87,0.4,1.51,0.76,1.94,1.1
		c0.32,0.25,0.57,0.55,0.75,0.91c0.18,0.36,0.27,0.73,0.27,1.14c0,0.93-0.42,1.71-1.27,2.35c-0.85,0.64-1.9,0.96-3.17,0.96
		c-0.41,0-0.85-0.04-1.32-0.13C258,491.74,257.49,491.61,256.94,491.43 M248.1,489.77c0,0.54,0.05,0.94,0.14,1.21
		c0.1,0.26,0.26,0.49,0.49,0.7h-2.95c0.23-0.21,0.39-0.44,0.49-0.7c0.1-0.26,0.15-0.66,0.15-1.21v-6.96c0-0.54-0.05-0.94-0.15-1.2
		c-0.1-0.26-0.26-0.49-0.49-0.69h3.72c1.06,0,1.92,0.25,2.57,0.76c0.65,0.5,0.98,1.16,0.98,1.97c0,0.59-0.2,1.11-0.59,1.56
		c-0.39,0.45-1,0.84-1.83,1.18l2.8,3.72c0.16,0.22,0.36,0.46,0.59,0.71c0.23,0.25,0.5,0.5,0.8,0.77l-0.84,0.08h-0.13
		c-0.39,0-0.77-0.1-1.15-0.31c-0.37-0.21-0.69-0.49-0.94-0.85l-3.21-4.42c0.95-0.21,1.65-0.5,2.09-0.87
		c0.44-0.37,0.66-0.85,0.66-1.43c0-0.54-0.19-0.98-0.57-1.32c-0.38-0.34-0.88-0.51-1.49-0.51c-0.14,0-0.31,0.01-0.5,0.03
		c-0.2,0.02-0.42,0.06-0.67,0.11V489.77z M235.16,490.22c-0.05,0.11-0.08,0.22-0.11,0.34c-0.02,0.11-0.03,0.24-0.03,0.36
		c0,0.1,0.04,0.22,0.11,0.34c0.07,0.12,0.2,0.26,0.36,0.42h-2.54c0.21-0.15,0.4-0.34,0.57-0.6c0.17-0.25,0.34-0.6,0.52-1.04
		l3.03-7.67c0.06-0.15,0.11-0.29,0.14-0.43c0.03-0.14,0.05-0.26,0.05-0.37c0-0.12-0.03-0.24-0.09-0.34
		c-0.06-0.1-0.16-0.21-0.29-0.31h2.45l3.42,9.01c0.16,0.41,0.33,0.74,0.52,0.99c0.18,0.26,0.42,0.5,0.71,0.75h-3.08l0.04-0.04
		c0.28-0.3,0.43-0.52,0.43-0.66c0-0.16-0.06-0.41-0.19-0.73c-0.01-0.05-0.03-0.09-0.04-0.12l-0.92-2.49h-4.01L235.16,490.22z
		 M236.61,486.57h3.17l-1.53-4.16L236.61,486.57z M224.46,491.67c0.23-0.21,0.39-0.44,0.49-0.7c0.1-0.26,0.15-0.66,0.15-1.21v-6.96
		c0-0.54-0.05-0.94-0.15-1.2c-0.1-0.26-0.26-0.49-0.49-0.69h5.89v1.69c-0.26-0.21-0.55-0.36-0.87-0.45
		c-0.31-0.09-0.68-0.14-1.09-0.14c-0.21,0-0.45,0.02-0.71,0.05c-0.26,0.03-0.56,0.08-0.89,0.15v3.04h2.63v1.56
		c-0.12-0.15-0.29-0.25-0.5-0.3c-0.21-0.06-0.6-0.09-1.16-0.09h-0.97v3.86c0.41,0.06,0.78,0.11,1.11,0.14
		c0.33,0.03,0.62,0.05,0.86,0.05c0.55,0,1.06-0.07,1.55-0.22c0.49-0.15,0.96-0.37,1.43-0.68l-0.75,2.11H224.46z M218.9,489.77
		c0,0.54,0.05,0.94,0.15,1.21c0.1,0.26,0.26,0.49,0.49,0.7h-2.97c0.23-0.21,0.4-0.44,0.49-0.7c0.1-0.26,0.14-0.66,0.14-1.21v-2.97
		l-2.63-4.27c-0.2-0.32-0.42-0.61-0.66-0.88c-0.23-0.27-0.5-0.51-0.79-0.74h2.38l2.79,4.68l1.88-3.05c0.11-0.19,0.2-0.35,0.26-0.51
		c0.06-0.15,0.09-0.28,0.09-0.39c0-0.12-0.04-0.25-0.11-0.37c-0.08-0.12-0.19-0.24-0.35-0.37h2.51l-3.69,5.92V489.77z"/>
	<path class="st5" d="M201.31,475.93c0-3.45,0.58-6.49,1.75-9.11c1.17-2.62,2.95-5.07,5.33-7.35c1.37-1.27,2.92-2.54,4.65-3.81
		c1.73-1.27,4.67-3.3,8.84-6.1c2.39-1.63,4.23-3.25,5.53-4.88c1.3-1.63,1.94-3.51,1.94-5.64c0-2.44-0.72-4.42-2.17-5.94
		c-1.45-1.52-3.39-2.29-5.83-2.29c-2.64,0-4.7,1.09-6.17,3.28c-1.47,2.18-2.24,5.18-2.29,8.99h-10.36v-0.99
		c0-4.12,0.79-7.72,2.36-10.82c1.57-3.1,3.82-5.5,6.74-7.2c2.92-1.7,6.34-2.55,10.25-2.55c3.3,0,6.35,0.69,9.15,2.06
		c2.79,1.37,5.02,3.32,6.67,5.83c1.65,2.52,2.48,5.45,2.48,8.8c0,3.45-0.81,6.5-2.44,9.15c-1.02,1.58-2.29,3.05-3.81,4.42
		c-1.52,1.37-3.68,2.95-6.48,4.73c-3.56,2.24-6.2,4.09-7.93,5.56c-1.73,1.47-3.15,3-4.27,4.57h11.03c2.82,4.24,6.03,7.07,10.61,9.3"
		/>
	<path class="st5" d="M201.31,475.93c0-3.45,0.58-6.49,1.75-9.11c1.17-2.62,2.95-5.07,5.33-7.35c1.37-1.27,2.92-2.54,4.65-3.81
		c1.73-1.27,4.67-3.3,8.84-6.1c2.39-1.63,4.23-3.25,5.53-4.88c1.3-1.63,1.94-3.51,1.94-5.64c0-2.44-0.72-4.42-2.17-5.94
		c-1.45-1.52-3.39-2.29-5.83-2.29c-2.64,0-4.7,1.09-6.17,3.28c-1.47,2.18-2.24,5.18-2.29,8.99h-10.36v-0.99
		c0-4.12,0.79-7.72,2.36-10.82c1.57-3.1,3.82-5.5,6.74-7.2c2.92-1.7,6.34-2.55,10.25-2.55c3.3,0,6.35,0.69,9.15,2.06
		c2.79,1.37,5.02,3.32,6.67,5.83c1.65,2.52,2.48,5.45,2.48,8.8c0,3.45-0.81,6.5-2.44,9.15c-1.02,1.58-2.29,3.05-3.81,4.42
		c-1.52,1.37-3.68,2.95-6.48,4.73c-3.56,2.24-6.2,4.09-7.93,5.56c-1.73,1.47-3.15,3-4.27,4.57h11.03c2.82,4.24,6.03,7.07,10.61,9.3"
		/>
	<path class="st5" d="M237.11,424.31c9.12-5.22,21.71-3.87,29.61,2.41c7,6.33,9.85,14.66,9.25,24.65
		c-1.6,17.34-15.2,28.04-33.94,23.5c-7.06-2-13.19-7.28-15.6-14.27c2.7-2,6-3.41,9.7-7.02c1.1,7.18,6.21,12.78,13.88,12.76
		c8.96-0.06,13.66-6.47,14.41-15.68c0.39-6.65-1.14-12.36-4.76-16.29c-4.17-3.93-12.1-4.91-17.36-1.33
		C241.53,429.52,239.85,426.61,237.11,424.31"/>
	<path class="st5" d="M295.05,183.96c3.73-3.47,6.34-7.29,7.85-11.37c1.52-4.12,2.3-10.76,2.3-19.91V38.45
		c0-9.15-0.77-15.75-2.3-19.78c-1.51-3.99-4.12-7.77-7.85-11.24h70.5c32.15,0,57.15,7.8,75.01,23.43
		c17.88,15.65,26.81,37.35,26.81,65.16c0,14.32-2.57,27.37-7.68,39.13c-5.13,11.8-12.67,21.99-22.56,30.63
		c-7.29,6.37-16.02,10.95-26.2,13.84c-10.16,2.88-23.04,4.34-38.61,4.34 M353.62,155.58c2.86,0.78,5.64,1.34,8.33,1.74
		c2.65,0.39,5.34,0.56,8.07,0.56c13.88,0,25.09-5.46,33.62-16.44c8.52-10.96,12.76-25.6,12.76-43.9c0-18.83-4.17-33.62-12.45-44.42
		c-8.29-10.8-19.61-16.18-33.93-16.18c-2.47,0-5.08,0.13-7.81,0.39c-2.78,0.26-5.64,0.61-8.59,1.13V155.58z M88.21,7.43
		c17.48,0,31.28,4.3,41.43,12.84c10.2,8.55,15.27,20.09,15.27,34.58c0,16.27-5.42,29.07-16.27,38.39
		c-10.85,9.33-25.73,13.97-44.6,13.97c-2.13,0-5.55-0.17-10.28-0.52h-0.65c8.2-4.38,14.27-9.94,18.22-16.57
		c3.95-6.68,5.9-14.88,5.9-24.6c0-9.59-2.43-17.18-7.29-22.82c-4.86-5.64-11.54-8.5-20-8.59v118.61c0,9.11,0.78,15.75,2.34,19.87
		c1.56,4.12,4.16,7.9,7.81,11.37H10.34c3.73-3.47,6.33-7.25,7.85-11.37c1.52-4.12,2.3-10.76,2.3-19.87V38.45
		c0-9.15-0.78-15.75-2.3-19.78c-1.52-4.03-4.12-7.77-7.85-11.24H88.21z"/>
	<path class="st0" d="M244.1,203.35h79.92c6.49,11.84,15.46,22.45,26.11,30.38h-85.28c-3-2.01-7.24-5.42-10.43-11.68"/>
	<path class="st5" d="M206.89,94.37c9.41-2.39,16.57-6.46,21.48-12.32c4.9-5.86,7.37-13.1,7.37-21.74c0-8.16-2.21-14.58-6.68-19.26
		c-4.43-4.73-10.5-7.07-18.22-7.07c-1.13,0-1.91,0-2.43,0.04c-0.52,0.04-1,0.17-1.52,0.35 M217.05,183.96h-69.76
		c3.73-3.47,6.33-7.25,7.85-11.37c1.52-4.12,2.3-10.76,2.3-19.91V38.45c0-9.5-0.78-16.18-2.3-20.09c-1.52-3.9-4.12-7.55-7.85-10.93
		h68.76c22.95,0,40.09,3.9,51.41,11.76c11.32,7.85,16.96,19.65,16.96,35.4c0,9.41-2.6,17.61-7.81,24.6
		c-5.21,6.98-13.32,13.1-24.34,18.35l63.72,113.68c2.6,4.63,6.03,9.33,9.98,14.27c3.95,4.95,8.46,10.02,13.54,15.18l-29.37,2.82
		c-0.82,0.08-1.74,0.13-2.73,0.17c-0.95,0.04-2.43,0.09-4.38,0.09c-9.15,0-16.79-2.34-22.91-6.98
		c-6.16-4.68-12.27-12.95-18.52-24.82l-54.69-103.75v44.47c0,9.15,0.78,15.79,2.34,19.91C210.8,176.71,213.4,180.48,217.05,183.96z"
		/>
	<path class="st4" d="M408.54,457.68c-1.85-0.67-3.22-1.01-4.1-1c-0.89,0.01-1.48,0.44-1.8,1.3l-0.73,2.01l11.24,4.09l0.7-1.93
		c0.33-0.9,0.15-1.65-0.53-2.23c-0.68-0.58-2.1-1.27-4.27-2.06 M398.25,462.25l1.97-5.43c0.87-2.39,2.41-3.53,4.61-3.42
		c1.39,0.06,2.92,0.4,4.58,1c1.66,0.61,2.9,1.11,3.7,1.51c1.76,0.87,2.93,1.85,3.49,2.92c0.56,1.08,0.56,2.39-0.01,3.96l-0.82,2.25
		l10.59,3.85l-1.15,3.17L398.25,462.25z M392.91,476.02l1.32-3.11l26.42,11.22l-1.32,3.11L392.91,476.02z M387.46,487.38l1.74-2.89
		l24.61,14.79l-1.74,2.89L400.14,495l-2.37,3.95l11.93,7.17l-1.74,2.89l-24.61-14.78l1.74-2.89l10.32,6.2l2.37-3.95L387.46,487.38z
		 M379.49,516.44c-0.67-0.25-1.39-0.65-2.16-1.21c-1.68-1.22-2.79-2.5-3.33-3.84c-0.54-1.34-0.17-2.89,1.1-4.64
		c1.64-2.25,3.69-2.79,6.14-1.62c1.06,0.5,2.3,1.27,3.72,2.29l1.37,1l-1.9,2.61l-1.56-1.13c-1.48-1.07-2.53-1.72-3.15-1.94
		c-0.62-0.22-1.09-0.28-1.42-0.18c-0.33,0.1-0.62,0.32-0.87,0.67c-0.48,0.66-0.58,1.31-0.31,1.95c0.27,0.64,0.89,1.31,1.84,2
		c0.95,0.69,1.74,1.06,2.37,1.12c0.63,0.06,1.29,0.04,1.97-0.06c0.68-0.1,1.07-0.15,1.15-0.16l2.82-0.36c3.37-0.46,6.29,0.21,8.75,2
		c2,1.46,3.31,2.88,3.92,4.27c0.61,1.39,0.28,2.96-0.99,4.7c-1.53,2.1-3.42,2.77-5.68,1.98c-1.27-0.43-2.75-1.25-4.43-2.47
		c-0.05-0.03-0.08-0.06-0.13-0.09l-2.26-1.64l1.93-2.65l2.36,1.72c1.7,1.23,2.97,1.97,3.81,2.21c0.84,0.23,1.51,0.02,1.99-0.65
		c0.48-0.67,0.66-1.24,0.54-1.72c-0.12-0.48-0.5-0.97-1.11-1.48c-0.61-0.51-1.32-1.05-2.12-1.63c-1.61-1.17-3.64-1.56-6.08-1.18
		l-2.62,0.42C382.79,517.05,380.9,516.96,379.49,516.44z M370.01,525.55c-1.61-1.5-2.68-2.23-3.21-2.18
		c-0.53,0.05-1.04,0.35-1.56,0.9l-1.45,1.55l7.09,6.61l1.47-1.58c0.44-0.48,0.68-0.91,0.71-1.31c0.03-0.4-0.18-0.88-0.61-1.46
		c-0.43-0.58-1.19-1.38-2.3-2.41L370.01,525.55z M359.55,526.47l4.1-4.4c1.17-1.25,2.26-1.91,3.29-1.97
		c1.03-0.07,2.22,0.42,3.56,1.47c0.55,0.43,1.37,1.14,2.45,2.14c1.08,1.01,1.85,1.99,2.32,2.96c0.46,0.96,0.48,1.91,0.02,2.82
		c0.58-0.44,1.23-0.58,1.94-0.42c0.71,0.16,1.63,0.66,2.75,1.49c1.12,0.84,2.68,2.18,4.67,4.05c2,1.87,3.23,2.89,3.68,3.08
		l-2.29,2.46c-0.37-0.11-2.79-2.25-7.25-6.4c-1.5-1.4-2.51-2.07-3.03-2c-0.52,0.07-1.06,0.4-1.61,0.99l-1.45,1.39l10.14,9.45
		l-2.3,2.47L359.55,526.47z M346.37,539.22l6.38-5.74l1.88,2.09l-3.87,3.48l6.57,7.29l3.66-3.3l1.88,2.09l-3.66,3.3l7.01,7.78
		l3.92-3.53l1.88,2.09l-6.43,5.78L346.37,539.22z M333.15,548.95l2.76-1.93l14.87,21.23l4.34-3.04l1.6,2.28l-7.1,4.97L333.15,548.95
		z M328.42,576.35l3.81-2.2l-9.55-12l-0.04,0.02L328.42,576.35z M318.19,558.6l3.52-2.03l18.47,22.49l-2.76,1.59l-3.44-4.34
		l-4.51,2.6l2.09,5.12l-2.79,1.61L318.19,558.6z M299.2,567.35l7.84-3.49l1.14,2.56l-4.75,2.12l3.99,8.97l4.5-2l1.14,2.56l-4.5,2
		l4.26,9.57l4.82-2.14l1.14,2.56l-7.9,3.52L299.2,567.35z M289.95,579.17c-0.52-1.71-1.1-2.88-1.74-3.51
		c-0.63-0.62-1.41-0.8-2.34-0.51l-1.66,0.51l6.82,22.29l1.65-0.51c0.62-0.19,1.07-0.47,1.35-0.83c0.6-0.77,0.52-2.37-0.22-4.8
		L289.95,579.17z M280.22,574.08l5.16-1.58c2.1-0.64,3.74-0.44,4.93,0.61c1.19,1.06,2.15,2.77,2.87,5.15l3.7,12.05
		c0.86,2.82,1.05,4.98,0.56,6.48c-0.49,1.51-1.75,2.57-3.79,3.19l-5.05,1.54L280.22,574.08z M249.36,579.42l8.55-0.75l0.25,2.8
		l-5.19,0.45l0.86,9.78l4.91-0.43l0.24,2.79l-4.91,0.43l0.91,10.43l5.25-0.46l0.24,2.79l-8.61,0.75L249.36,579.42z M229.08,587.89
		c0.08-2.18,0.32-3.77,0.71-4.77c0.39-1.01,0.81-1.75,1.25-2.21c0.96-1.01,2.32-1.49,4.09-1.44c2.48,0.1,4.04,1.24,4.68,3.45
		c0.37,1.27,0.52,2.94,0.45,5.01l-0.11,3.18l-3.31-0.12l0.11-3.19c0.06-1.84,0.01-3.09-0.17-3.74c-0.18-0.65-0.4-1.09-0.68-1.31
		c-0.28-0.22-0.63-0.34-1.07-0.36c-0.9-0.03-1.53,0.37-1.91,1.22c-0.38,0.84-0.59,2.18-0.65,4.02l-0.43,12.42
		c-0.08,2.18,0.03,3.7,0.3,4.57c0.28,0.87,0.86,1.33,1.75,1.36c0.89,0.03,1.49-0.38,1.83-1.24c0.33-0.86,0.53-2.38,0.6-4.55
		l0.11-3.18l3.34,0.12l-0.11,3.14c-0.1,3.01-0.59,5.21-1.46,6.6c-0.87,1.39-2.33,2.05-4.37,1.98c-2.04-0.07-3.47-0.86-4.29-2.35
		c-0.82-1.49-1.18-3.71-1.08-6.66L229.08,587.89z M216.46,578.16l3.34,0.47l-4,28.43l-3.34-0.47L216.46,578.16z M201.56,582.63
		c0.53-2.14,0.65-3.43,0.35-3.86c-0.3-0.44-0.81-0.74-1.54-0.92l-2.06-0.51l-2.34,9.4l2.09,0.52c0.63,0.16,1.13,0.15,1.48-0.02
		c0.36-0.17,0.68-0.58,0.98-1.24c0.29-0.65,0.63-1.71,0.99-3.18L201.56,582.63z M195.69,573.92l5.84,1.46
		c1.66,0.41,2.76,1.05,3.32,1.92c0.56,0.87,0.7,2.14,0.44,3.83c-0.1,0.69-0.33,1.75-0.69,3.18c-0.36,1.43-0.85,2.58-1.46,3.46
		c-0.62,0.87-1.44,1.34-2.46,1.39c0.67,0.29,1.11,0.79,1.31,1.5c0.2,0.7,0.21,1.75,0.03,3.13c-0.19,1.38-0.61,3.4-1.27,6.05
		c-0.66,2.65-0.97,4.22-0.9,4.71l-3.26-0.81c-0.08-0.38,0.61-3.53,2.09-9.45c0.5-1.99,0.59-3.2,0.28-3.62
		c-0.31-0.42-0.86-0.73-1.65-0.93l-1.92-0.59l-3.35,13.45l-3.27-0.82L195.69,573.92z M165.89,562.81l8.66,3.85l-1.14,2.56l-2.7-1.2
		l-10.53,23.66l-3.07-1.37l10.53-23.66l-2.89-1.29L165.89,562.81z M156.78,557.66l2.56,1.54l-14.78,24.61l-2.12-1.28l4.62-20.21
		l-3.56,6.31l-6.42,10.68l-2.67-1.6l14.78-24.61l2.18,1.31L147,574.58l3.99-7.3L156.78,557.66z M134.39,542.29l6.94,5.04l-1.65,2.27
		l-4.21-3.06l-5.77,7.94l3.99,2.9l-1.65,2.27l-3.99-2.9l-6.15,8.47l4.26,3.1l-1.65,2.27l-7-5.08L134.39,542.29z M122.77,531.42
		l2.43,2.34l-18,18.64l3.81,3.68l-1.94,2.01l-6.24-6.03L122.77,531.42z M111.21,518.68l2.21,2.55l-19.56,17l3.48,4l-2.1,1.83
		l-5.69-6.55L111.21,518.68z M100.51,503.73l5.04,6.94l-2.27,1.65l-3.06-4.21l-7.94,5.77l2.9,3.99l-2.27,1.65l-2.9-3.99l-8.47,6.16
		l3.1,4.27l-2.27,1.65l-5.08-7L100.51,503.73z M83.73,490.85c1.92-1.02,3.42-1.61,4.49-1.77c1.07-0.17,1.92-0.17,2.54-0.02
		c1.35,0.33,2.45,1.27,3.29,2.83c1.16,2.2,0.94,4.12-0.64,5.78c-0.91,0.95-2.29,1.92-4.12,2.89l-2.81,1.49l-1.56-2.93l2.82-1.5
		c1.62-0.86,2.68-1.54,3.15-2.02c0.48-0.48,0.74-0.89,0.8-1.24c0.05-0.35-0.02-0.71-0.23-1.1c-0.42-0.8-1.09-1.14-2.01-1.04
		c-0.91,0.09-2.18,0.58-3.8,1.44l-10.97,5.83c-1.92,1.02-3.19,1.87-3.81,2.55c-0.62,0.68-0.72,1.41-0.3,2.19
		c0.42,0.79,1.08,1.1,1.99,0.96c0.91-0.14,2.32-0.73,4.24-1.75l2.81-1.49l1.57,2.95l-2.78,1.48c-2.66,1.41-4.81,2.09-6.45,2.03
		c-1.64-0.06-2.94-0.99-3.9-2.79c-0.96-1.8-0.99-3.44-0.11-4.89c0.88-1.46,2.62-2.87,5.23-4.26L83.73,490.85z M86,476.24l1.19,2.79
		l-15.11,2.09l-11.26,9.25l-1.15-2.71l7.99-6.56l-10.13,1.5l-1.2-2.84l15.6-2.16l10.88-8.94l1.15,2.72l-7.7,6.32L86,476.24z
		 M76.9,452.6l2.65,8.16l-2.67,0.87l-1.61-4.95l-9.34,3.03l1.52,4.69l-2.67,0.87l-1.52-4.69l-9.96,3.24l1.63,5.01l-2.67,0.87
		l-2.67-8.22L76.9,452.6z"/>
</g>
</svg>
