<?xml version="1.0" encoding="iso-8859-1"?>
<!-- Uploaded to: SVG Repo, www.svgrepo.com, Generator: SVG Repo Mixer Tools -->
<svg fill="#000000" height="800px" width="800px" version="1.1" id="Layer_1" xmlns="http://www.w3.org/2000/svg" xmlns:xlink="http://www.w3.org/1999/xlink" 
	 viewBox="0 0 512 512" xml:space="preserve">
<g>
	<g>
		<path d="M423.12,100.933c0.307,0,0.619-0.003,0.934-0.012c47.271-1.216,86.717-40.664,87.934-87.931
			c0.037-1.424-0.02-2.767-0.071-3.954c-0.016-0.386-0.033-0.774-0.045-1.161c-0.14-4.218-3.526-7.606-7.744-7.747l-1.156-0.046
			c-1.188-0.05-2.532-0.107-3.96-0.07c-47.27,1.217-86.716,40.664-87.934,87.935c-0.015,0.563-0.006,1.102,0.002,1.636
			l-15.785,15.786c0.123-21.922-8.149-43.881-24.838-60.57c-0.125-0.125-0.257-0.248-0.384-0.373l6.429-6.429
			c3.131-3.131,3.131-8.207,0-11.337c-3.131-3.132-8.207-3.132-11.337,0l-18.14,18.14c-31.22,31.22-33.01,80.881-5.394,114.232
			l-22.529,22.53c1.104-25.303-7.974-50.971-27.253-70.249c-0.125-0.125-0.257-0.249-0.383-0.373l6.429-6.429
			c3.131-3.131,3.131-8.206,0-11.337c-3.131-3.131-8.207-3.131-11.337,0l-18.14,18.14c-34.555,34.556-36.343,89.632-5.409,126.341
			l-26.209,26.209c0.195-2.586,0.295-5.189,0.295-7.81c0-27.266-10.618-52.901-29.898-72.18c-0.127-0.127-0.257-0.246-0.384-0.372
			l6.432-6.432c3.131-3.131,3.131-8.207,0-11.337c-3.131-3.131-8.207-3.131-11.337,0l-18.14,18.14
			c-19.281,19.28-29.898,44.915-29.898,72.18c0,24.577,8.63,47.826,24.451,66.292l-23.981,23.981c0.401-3.85,0.61-7.742,0.61-11.667
			c0-29.551-11.508-57.332-32.404-78.228c-0.127-0.127-0.257-0.246-0.384-0.372l6.43-6.43c3.131-3.131,3.131-8.207,0-11.337
			c-3.131-3.131-8.207-3.131-11.337,0L99.12,256.432c-20.896,20.896-32.402,48.677-32.402,78.228
			c0,26.862,9.511,52.261,26.937,72.357L2.349,498.315c-3.131,3.131-3.131,8.206,0,11.337C3.913,511.217,5.966,512,8.017,512
			s4.103-0.782,5.668-2.348l91.303-91.303c20.095,17.426,45.494,26.937,72.357,26.937c29.551,0,57.332-11.508,78.227-32.402
			l18.14-18.14c3.131-3.131,3.131-8.206,0-11.337c-3.131-3.131-8.207-3.131-11.337,0l-6.43,6.432
			c-0.125-0.127-0.245-0.257-0.372-0.384c-23.88-23.88-57.173-35.193-89.916-31.771l24.003-24.003
			c18.467,15.821,41.715,24.451,66.292,24.451c27.266,0,52.901-10.618,72.181-29.898l18.14-18.139c3.131-3.131,3.131-8.207,0-11.337
			c-3.13-3.131-8.206-3.132-11.337,0l-6.43,6.43c-0.126-0.128-0.244-0.257-0.372-0.385c-21.316-21.316-50.768-31.773-80.024-29.57
			l26.237-26.237c16.836,14.216,37.922,21.98,60.212,21.98c24.982,0,48.469-9.729,66.133-27.394l18.14-18.14
			c3.131-3.131,3.131-8.207,0-11.337c-3.131-3.131-8.207-3.131-11.337,0l-6.429,6.429c-0.124-0.126-0.248-0.259-0.373-0.383
			c-12.65-12.65-28.533-21.364-45.93-25.197c-8.01-1.765-16.168-2.452-24.272-2.101l22.483-22.483
			c15.654,12.964,34.893,19.457,54.145,19.456c21.757-0.001,43.523-8.285,60.087-24.85l18.139-18.14
			c3.131-3.131,3.131-8.207,0-11.337c-3.133-3.135-8.209-3.135-11.34-0.004l-6.429,6.429c-0.125-0.126-0.248-0.259-0.373-0.383
			c-16.354-16.355-38.147-25.053-60.489-24.919l15.702-15.702C422.651,100.926,422.878,100.933,423.12,100.933z M495.772,16.227
			c-2.769,36.024-32.455,65.709-68.479,68.48C430.064,48.683,459.748,18.997,495.772,16.227z M110.84,401.912
			c-0.126-0.125-0.259-0.241-0.385-0.367c-17.867-17.867-27.707-41.622-27.707-66.89c-0.001-25.268,9.839-49.024,27.706-66.89
			c0.125-0.125,0.251-0.249,0.378-0.374c0.127,0.124,0.252,0.249,0.378,0.374c17.867,17.868,27.707,41.623,27.707,66.89
			c0,25.269-9.84,49.024-27.707,66.89C111.088,401.669,110.965,401.79,110.84,401.912z M244.235,400.79
			c0.125,0.125,0.25,0.251,0.374,0.378c-0.124,0.127-0.248,0.252-0.374,0.378c-17.867,17.868-41.622,27.707-66.89,27.707
			c-19.656,0-38.383-5.978-54.148-17.035c9.762-9.924,17.43-21.366,22.783-33.792C180.171,366.441,218.561,375.116,244.235,400.79z
			 M195.492,317.26c-0.126-0.125-0.26-0.242-0.385-0.367c-16.253-16.253-25.202-37.86-25.202-60.844
			c-0.001-22.983,8.949-44.592,25.201-60.844c0.126-0.125,0.251-0.25,0.378-0.374c0.126,0.124,0.251,0.248,0.377,0.373
			c0,0,0,0.001,0.001,0.001c16.253,16.251,25.202,37.86,25.202,60.844c0,10.361-1.835,20.436-5.322,29.873
			c-0.032,0.084-0.068,0.167-0.097,0.252c-4.253,11.399-10.923,21.858-19.784,30.718
			C195.739,317.017,195.616,317.138,195.492,317.26z M316.794,316.138c0.125,0.126,0.25,0.251,0.374,0.378
			c-0.124,0.127-0.249,0.252-0.374,0.378c-16.253,16.253-37.86,25.202-60.844,25.202c-17.363,0-33.936-5.115-48.014-14.62
			c9.284-9.473,16.512-20.435,21.445-32.35C259.978,285.225,293.935,293.279,316.794,316.138z M280.144,232.608
			c-0.126-0.125-0.26-0.242-0.386-0.367c-30.215-30.215-30.215-79.378,0-109.595c0.125-0.125,0.251-0.25,0.378-0.375
			c0.127,0.125,0.253,0.25,0.378,0.375c30.216,30.216,30.216,79.379,0,109.595C280.392,232.363,280.269,232.486,280.144,232.608z
			 M389.352,231.486c0.125,0.125,0.25,0.251,0.375,0.378c-0.125,0.126-0.25,0.252-0.375,0.378
			c-14.636,14.636-34.098,22.697-54.797,22.697c-15.07,0-29.473-4.292-41.846-12.263c8.866-9.103,15.511-19.571,19.922-30.732
			C339.952,203.867,369.052,211.184,389.352,231.486z M358.751,154.003c-0.127-0.125-0.26-0.241-0.386-0.367
			c-26.883-26.882-26.883-70.62-0.001-97.501c0.125-0.125,0.251-0.25,0.378-0.375c0.127,0.124,0.252,0.249,0.378,0.375
			c26.881,26.881,26.881,70.62,0,97.501C358.998,153.758,358.875,153.881,358.751,154.003z M455.865,152.88
			c0.125,0.125,0.25,0.251,0.375,0.378c-0.125,0.126-0.25,0.252-0.375,0.378c-22.852,22.851-57.883,26.263-84.387,10.261
			c8.287-8.578,14.408-18.478,18.368-29.018C413.48,128.763,438.465,135.482,455.865,152.88z"/>
	</g>
</g>
</svg>